<svg width="159" height="38" viewBox="0 0 159 38" fill="none" xmlns="http://www.w3.org/2000/svg">
<path d="M40.46 7.52H54.08V11.36H44.51V16.58H53.12V20.42H44.51V29H40.46V7.52ZM63.5291 29.48C61.9491 29.48 60.5391 29.13 59.2991 28.43C58.0591 27.71 57.0891 26.74 56.3891 25.52C55.7091 24.28 55.3691 22.89 55.3691 21.35C55.3691 19.83 55.7091 18.45 56.3891 17.21C57.0891 15.97 58.0591 15 59.2991 14.3C60.5391 13.58 61.9491 13.22 63.5291 13.22C65.0891 13.22 66.4891 13.58 67.7291 14.3C68.9691 15 69.9291 15.97 70.6091 17.21C71.3091 18.45 71.6591 19.83 71.6591 21.35C71.6591 22.89 71.3091 24.28 70.6091 25.52C69.9291 26.74 68.9691 27.71 67.7291 28.43C66.4891 29.13 65.0891 29.48 63.5291 29.48ZM63.5291 25.85C64.2891 25.85 64.9891 25.67 65.6291 25.31C66.2691 24.95 66.7791 24.43 67.1591 23.75C67.5391 23.07 67.7291 22.27 67.7291 21.35C67.7291 20.45 67.5391 19.66 67.1591 18.98C66.7791 18.3 66.2691 17.78 65.6291 17.42C64.9891 17.06 64.2891 16.88 63.5291 16.88C62.7691 16.88 62.0691 17.06 61.4291 17.42C60.7891 17.78 60.2691 18.3 59.8691 18.98C59.4891 19.66 59.2991 20.45 59.2991 21.35C59.2991 22.25 59.4891 23.05 59.8691 23.75C60.2691 24.43 60.7891 24.95 61.4291 25.31C62.0691 25.67 62.7691 25.85 63.5291 25.85ZM74.3731 13.7H78.0631V15.74H78.3031C78.6831 15.02 79.2731 14.43 80.0731 13.97C80.8731 13.49 81.7531 13.25 82.7131 13.25C83.4131 13.25 84.0531 13.36 84.6331 13.58V17.51C84.0931 17.31 83.6331 17.17 83.2531 17.09C82.8931 16.99 82.5031 16.94 82.0831 16.94C80.9231 16.94 80.0031 17.36 79.3231 18.2C78.6431 19.04 78.3031 20.1 78.3031 21.38V29H74.3731V13.7ZM94.1959 29.48C92.3159 29.48 90.6559 28.95 89.2159 27.89C87.7759 26.83 86.7659 25.33 86.1859 23.39L89.9959 21.89C90.2959 23.03 90.8059 23.94 91.5259 24.62C92.2459 25.3 93.1459 25.64 94.2259 25.64C95.1259 25.64 95.8959 25.42 96.5359 24.98C97.1759 24.52 97.4959 23.89 97.4959 23.09C97.4959 22.29 97.1859 21.64 96.5659 21.14C95.9659 20.62 94.8859 20.07 93.3259 19.49L92.0059 19.01C90.6259 18.53 89.4459 17.8 88.4659 16.82C87.4859 15.82 86.9959 14.57 86.9959 13.07C86.9959 11.95 87.2859 10.93 87.8659 10.01C88.4459 9.09 89.2659 8.37 90.3259 7.85C91.3859 7.31 92.5859 7.04 93.9259 7.04C95.8659 7.04 97.3959 7.5 98.5159 8.42C99.6359 9.32 100.406 10.38 100.826 11.6L97.2559 13.1C97.0359 12.44 96.6459 11.89 96.0859 11.45C95.5459 10.99 94.8459 10.76 93.9859 10.76C93.1059 10.76 92.3759 10.97 91.7959 11.39C91.2359 11.79 90.9559 12.32 90.9559 12.98C90.9559 13.62 91.2259 14.17 91.7659 14.63C92.3059 15.07 93.1959 15.5 94.4359 15.92L95.7859 16.37C97.6459 17.01 99.0659 17.86 100.046 18.92C101.046 19.96 101.546 21.33 101.546 23.03C101.546 24.43 101.186 25.62 100.466 26.6C99.7459 27.56 98.8159 28.28 97.6759 28.76C96.5559 29.24 95.3959 29.48 94.1959 29.48ZM104.842 7.52H108.772V12.95L108.532 15.62H108.772C109.212 14.9 109.852 14.32 110.692 13.88C111.532 13.44 112.442 13.22 113.422 13.22C115.282 13.22 116.702 13.78 117.682 14.9C118.682 16 119.182 17.53 119.182 19.49V29H115.252V19.97C115.252 18.99 114.982 18.23 114.442 17.69C113.922 17.15 113.222 16.88 112.342 16.88C111.302 16.88 110.442 17.3 109.762 18.14C109.102 18.98 108.772 20.01 108.772 21.23V29H104.842V7.52ZM130.209 29.48C128.629 29.48 127.219 29.13 125.979 28.43C124.739 27.71 123.769 26.74 123.069 25.52C122.389 24.28 122.049 22.89 122.049 21.35C122.049 19.83 122.389 18.45 123.069 17.21C123.769 15.97 124.739 15 125.979 14.3C127.219 13.58 128.629 13.22 130.209 13.22C131.769 13.22 133.169 13.58 134.409 14.3C135.649 15 136.609 15.97 137.289 17.21C137.989 18.45 138.339 19.83 138.339 21.35C138.339 22.89 137.989 24.28 137.289 25.52C136.609 26.74 135.649 27.71 134.409 28.43C133.169 29.13 131.769 29.48 130.209 29.48ZM130.209 25.85C130.969 25.85 131.669 25.67 132.309 25.31C132.949 24.95 133.459 24.43 133.839 23.75C134.219 23.07 134.409 22.27 134.409 21.35C134.409 20.45 134.219 19.66 133.839 18.98C133.459 18.3 132.949 17.78 132.309 17.42C131.669 17.06 130.969 16.88 130.209 16.88C129.449 16.88 128.749 17.06 128.109 17.42C127.469 17.78 126.949 18.3 126.549 18.98C126.169 19.66 125.979 20.45 125.979 21.35C125.979 22.25 126.169 23.05 126.549 23.75C126.949 24.43 127.469 24.95 128.109 25.31C128.749 25.67 129.449 25.85 130.209 25.85ZM141.079 13.7H144.769V15.56H145.009C145.429 14.9 146.039 14.35 146.839 13.91C147.639 13.45 148.559 13.22 149.599 13.22C150.979 13.22 152.229 13.57 153.349 14.27C154.489 14.95 155.379 15.91 156.019 17.15C156.659 18.39 156.979 19.79 156.979 21.35C156.979 22.93 156.659 24.34 156.019 25.58C155.379 26.8 154.489 27.76 153.349 28.46C152.229 29.14 150.979 29.48 149.599 29.48C148.559 29.48 147.629 29.26 146.809 28.82C146.009 28.38 145.409 27.83 145.009 27.17H144.769L145.009 29.33V35.48H141.079V13.7ZM148.909 25.85C149.649 25.85 150.339 25.66 150.979 25.28C151.619 24.9 152.129 24.37 152.509 23.69C152.889 23.01 153.079 22.23 153.079 21.35C153.079 20.47 152.889 19.69 152.509 19.01C152.129 18.33 151.619 17.81 150.979 17.45C150.339 17.07 149.649 16.88 148.909 16.88C148.189 16.88 147.509 17.07 146.869 17.45C146.229 17.81 145.719 18.33 145.339 19.01C144.959 19.69 144.769 20.47 144.769 21.35C144.769 22.23 144.959 23.01 145.339 23.69C145.719 24.37 146.229 24.9 146.869 25.28C147.509 25.66 148.189 25.85 148.909 25.85Z" fill="#42427D"/>
<path d="M12 7C17.523 7 22 11.477 22 17C22 22.523 17.523 27 12 27C6.477 27 2 22.523 2 17C2 11.477 6.477 7 12 7ZM12 9C9.87827 9 7.84344 9.84285 6.34315 11.3431C4.84285 12.8434 4 14.8783 4 17C4 19.1217 4.84285 21.1566 6.34315 22.6569C7.84344 24.1571 9.87827 25 12 25C14.1217 25 16.1566 24.1571 17.6569 22.6569C19.1571 21.1566 20 19.1217 20 17C20 14.8783 19.1571 12.8434 17.6569 11.3431C16.1566 9.84285 14.1217 9 12 9ZM17 18C17 19.3261 16.4732 20.5979 15.5355 21.5355C14.5979 22.4732 13.3261 23 12 23C10.6739 23 9.40215 22.4732 8.46447 21.5355C7.52678 20.5979 7 19.3261 7 18H17Z" fill="#42427D"/>
<path d="M7 18H17C17 20.7614 14.7614 23 12 23C9.23858 23 7 20.7614 7 18Z" fill="#42427D"/>
</svg>
