<svg
      viewBox="0 0 320 96.22957524769235"
      class="css-1j8o68f"
    >
      <defs id="SvgjsDefs1182"></defs>
      <g
        id="SvgjsG1183"
        featurekey="symbolFeature-0"
        transform="matrix(1.0994643097705799,0,0,1.0994643097705799,-5.590905026422139,-9.11664041984183)"
        fill="#111111"
      >
        <g xmlns="http://www.w3.org/2000/svg">
          <path
            d="M26.09,25.26c0.78,0,1.41,0.65,1.41,1.44c0,0.8-0.63,1.44-1.41,1.44c-0.78,0-1.41-0.65-1.41-1.44   C24.68,25.9,25.31,25.26,26.09,25.26z M28.1,91.26c1.28-0.84,2.82-1.67,4.25-2.439l1.01-0.541c0.33-0.18,0.63-0.369,0.9-0.579   c0.79-0.601,1.23-1.25,1.34-1.94c0.12-0.76-0.11-1.65-0.65-2.65c-0.17-0.31-0.37-0.629-0.61-0.969c-1.1-0.271-2.12-0.33-2.99-0.141   c-0.8,0.18-1.47,0.58-1.94,1.26c-0.49,0.7-0.86,2.52-1.08,4.49c-0.14,1.221-0.22,2.46-0.24,3.51H28.1z M33.77,91.46   c-2.38,1.28-5.15,2.771-5.61,3.56l-0.04,0.07c-0.39,0.65-1.2,0.9-1.88,0.6l-0.02-0.01h-0.01l-0.02-0.01l-0.02-0.01   c-0.35-0.18-0.64-0.49-0.76-0.9c-0.35-1.14-0.38-4.38-0.05-7.34c0.27-2.391,0.8-4.71,1.61-5.88c0.16-0.22,0.32-0.431,0.5-0.63   C14.43,83.1,7.45,87.971,7.41,88c-0.68,0.46-1.61,0.279-2.07-0.4s-0.28-1.609,0.4-2.07C5.81,85.49,21.08,74.82,48.47,77.29v-1.95   C41.2,74.41,33.8,70.8,28.09,65.48c-6.17-5.75-10.4-13.521-10.4-22.09c0-0.82,0.03-1.64,0.1-2.46c0.06-0.74,0.15-1.49,0.27-2.25   c-0.08-1.01-0.19-2.6-0.23-4.53h-2.19c-0.83,0-1.5-0.67-1.5-1.5v-0.06l0,0V32.5v-0.07v-0.02h-0.01c0-1.76,0.73-3.35,1.9-4.5   c0.59-0.57,1.28-1.04,2.05-1.36c0.15-1.52,0.38-3.02,0.71-4.44C20.59,14.47,32.86,9,34.11,8.46c0.12-0.06,0.26-0.11,0.4-0.14   c0.81-0.16,1.6,0.38,1.75,1.19c0.01,0.05,3.33,17.15,4.51,19.81c1.01,2.27,2.25,3.48,2.48,3.69c0.17,0.14,0.31,0.33,0.41,0.53   l35.27,21.601c0.07,0.039,0.131,0.08,0.19,0.129l7.69,4.48c0.709,0.41,0.959,1.33,0.539,2.04c-0.14,0.239-0.33,0.42-0.55,0.55l0,0   c-0.649,0.37-1.35,0.73-2.079,1.08l4.439,3.221l0,0c0.52,0.379,0.76,1.069,0.529,1.709c-2.34,6.51-11.42,5.771-11.449,5.771l0,0   c-0.58-0.04-1.1-0.42-1.311-1l-2.189-6.19c-0.84,0.221-1.66,0.43-2.471,0.61c-0.069,0.2-0.189,0.39-0.35,0.55   c-2.189,2.221-4.811,4.08-8.08,5.391c-3.24,1.299-7.08,2.049-11.75,2.049c-0.23,0-0.46,0-0.699-0.01v2.03   c12.389,1.5,27.1,5.69,43.85,14.58c0.73,0.38,1.01,1.29,0.63,2.021c-0.38,0.729-1.29,1.01-2.021,0.629   C70.17,82.21,50.8,79.24,36.45,79.91c0.43,0.57,0.8,1.14,1.1,1.71c0.87,1.59,1.21,3.11,0.98,4.54c-0.23,1.49-1.05,2.79-2.49,3.88   c-0.37,0.28-0.8,0.55-1.28,0.81c-0.7,0.381-0.88,0.48-1.03,0.561L33.77,91.46z M77.48,57.811c-0.08-0.051-0.16-0.101-0.23-0.17   l-1.79-1.101L41.53,35.76c-0.35-0.21-0.58-0.55-0.67-0.91c-0.65-0.68-1.86-2.14-2.82-4.3C37,28.19,34.62,16.56,33.7,11.96   c-3.38,1.66-10.8,5.81-11.98,10.84c-0.22,0.94-0.39,1.92-0.52,2.92c0.47,0.03,1.04,0.09,1.66,0.18c0.18-0.59,0.52-1.12,0.98-1.54   c0.65-0.59,1.54-0.95,2.51-0.95c0.97,0,1.86,0.36,2.51,0.95c0.69,0.62,1.12,1.5,1.12,2.47c0,0.97-0.43,1.84-1.12,2.47   c-0.24,0.21-0.51,0.4-0.8,0.55c0.16,3.17-1.79,8.48-7.05,9.42c-0.09,0.61-0.17,1.24-0.22,1.89c-0.06,0.72-0.09,1.47-0.09,2.22   c0,7.67,3.84,14.681,9.44,19.899C36.28,69,44.5,72.57,52.13,72.57c4.271,0,7.75-0.67,10.63-1.82c1.45-0.58,2.75-1.29,3.94-2.1   c-1.421,0.209-2.58,0.31-3.341,0.31c-3.779,0-7.34-0.95-10.469-2.64c-3.241-1.74-6.011-4.28-8.071-7.35   c-0.17-0.261-0.32-0.48-0.44-0.681c-0.16-0.25-0.3-0.49-0.42-0.7c-0.41-0.72-0.16-1.63,0.56-2.04c0.72-0.409,1.63-0.159,2.04,0.56   c0.13,0.23,0.25,0.431,0.36,0.601c0.15,0.24,0.27,0.44,0.38,0.601c0.12,0.18,0.24,0.359,0.37,0.529c1.75,2.43,4.01,4.43,6.63,5.85   c2.7,1.461,5.78,2.281,9.05,2.281c0.74,0,1.9-0.121,3.34-0.341c2.311-0.36,5.32-0.989,8.431-1.86l0.14-0.039l0.04-0.01l0.05-0.011   l0.03-0.01l0.021-0.011l0.05-0.01l0.05-0.01h0.01l0.04-0.01l0.05-0.01l0.041-0.01h0.01l0.05-0.011l0.05-0.01h0.02l0.03-0.011   l0.05-0.01l0.041-0.01h0.01c1.779-0.52,3.57-1.119,5.24-1.79c0.029-0.01,0.06-0.021,0.09-0.04c0.43-0.17,0.84-0.35,1.25-0.529   c0.16-0.07,0.31-0.141,0.459-0.211l-1.02-0.59l-4.439-2.58V57.811z M81.51,64.83c-1.26,0.48-2.57,0.92-3.869,1.33l1.779,5.05   c1.74-0.03,5.359-0.39,6.971-2.83l-4.881-3.54V64.83z"
          ></path>
        </g>
      </g>
      <g
        id="SvgjsG1184"
        featurekey="nameFeature-0"
        transform="matrix(0.8344459534031404,0,0,0.8344459534031404,120.23364504202661,24.021389998820958)"
        fill="#111111"
      >
        <path
          d="M17 11.440000000000001 l10.68 28.56 l-6.52 0 l-2.16 -6.36 l-10.68 0 l-2.24 6.36 l-6.36 0 l10.84 -28.56 l6.44 0 z M13.68 18.48 l-3.72 10.48 l7.4 0 l-3.6 -10.48 l-0.08 0 z M41.44 18.76 c2.64 0 4.5532 0.66676 5.74 2.0001 s1.78 3.4533 1.78 6.36 l0 12.88 l-5.68 0 l0 -11.72 c0 -1.7067 -0.27332 -2.9734 -0.82 -3.8 s-1.4867 -1.24 -2.82 -1.24 c-1.5467 0 -2.6667 0.46668 -3.36 1.4 s-1.04 2.4666 -1.04 4.6 l0 10.76 l-5.68 0 l0 -20.68 l5.4 0 l0 2.88 l0.12 0 c1.4133 -2.2933 3.5333 -3.44 6.36 -3.44 z M59.120000000000005 11.440000000000001 l0 4.68 l-5.68 0 l0 -4.68 l5.68 0 z M59.120000000000005 19.32 l0 20.68 l-5.68 0 l0 -20.68 l5.68 0 z M75.52000000000001 18.76 c3.0133 0 5.0268 1.1466 6.04 3.44 c1.5733 -2.2933 3.6666 -3.44 6.28 -3.44 c2.5867 0 4.4868 0.65332 5.7 1.96 s1.82 3.1067 1.82 5.4 l0 13.88 l-5.68 0 l0 -11.96 c0 -1.8133 -0.27332 -3.0666 -0.82 -3.76 s-1.4334 -1.04 -2.66 -1.04 c-2.5333 0 -3.8 1.7333 -3.8 5.2 l0 11.56 l-5.68 0 l0 -12.2 c0 -1.76 -0.28 -2.96 -0.84 -3.6 s-1.4267 -0.96 -2.6 -0.96 c-1.0933 0 -2.0066 0.43332 -2.74 1.3 s-1.1 2.0067 -1.1 3.42 l0 12.04 l-5.68 0 l0 -20.68 l5.36 0 l0 2.8 l0.08 0 c1.5733 -2.24 3.68 -3.36 6.32 -3.36 z M109.36000000000001 18.76 c6.0268 0.02668 9.04 1.9866 9.04 5.88 l0 10.96 c0 2.0267 0.24 3.4934 0.72 4.4 l-5.76 0 c-0.21332 -0.64 -0.34664 -1.3067 -0.39996 -2 c-1.68 1.7067 -4 2.56 -6.96 2.56 c-2.16 0 -3.8733 -0.54668 -5.14 -1.64 s-1.9 -2.6133 -1.9 -4.56 c0 -1.8933 0.6 -3.36 1.8 -4.4 c1.2267 -1.0933 3.4534 -1.7866 6.68 -2.08 c2.2933 -0.24 3.7466 -0.54 4.36 -0.9 s0.92 -0.91332 0.92 -1.66 c0 -0.93332 -0.28 -1.6266 -0.84 -2.08 s-1.4933 -0.68 -2.8 -0.68 c-1.2 0 -2.1067 0.24668 -2.72 0.74 s-0.97332 1.2866 -1.08 2.38 l-5.68 0 c0.13332 -2.2667 1.0666 -3.9867 2.8 -5.16 s4.0532 -1.76 6.96 -1.76 z M104.64 34.12 c0 1.76 1.16 2.64 3.48 2.64 c3.04 -0.02668 4.5732 -1.5867 4.6 -4.68 l0 -2.2 c-0.45332 0.45332 -1.6 0.78664 -3.44 0.99996 c-1.6 0.18668 -2.7733 0.51336 -3.52 0.98004 s-1.12 1.22 -1.12 2.26 z M128.64000000000001 11.440000000000001 l0 28.56 l-5.68 0 l0 -28.56 l5.68 0 z M154.68 10.760000000000002 c3.4933 0 6.2732 0.80004 8.34 2.4 s3.1 3.8667 3.1 6.8 l-6.08 0 c-0.08 -1.44 -0.56668 -2.52 -1.46 -3.24 s-2.2733 -1.08 -4.14 -1.08 c-1.3067 0 -2.36 0.28668 -3.16 0.86 s-1.2 1.3666 -1.2 2.38 c0 0.82668 0.24668 1.4267 0.74 1.8 s1.1933 0.70664 2.1 0.99996 s2.4934 0.72 4.76 1.28 c2.3733 0.58668 4.2 1.2267 5.48 1.92 s2.2533 1.58 2.92 2.66 s1 2.4067 1 3.98 c0 1.8133 -0.48 3.4266 -1.44 4.84 s-2.36 2.4866 -4.2 3.22 s-3.92 1.1 -6.24 1.1 c-3.5467 0 -6.46 -0.88668 -8.74 -2.66 s-3.42 -4.2068 -3.42 -7.3 l0 -0.2 l6.08 0 c0 1.68 0.57332 2.98 1.72 3.9 s2.6667 1.38 4.56 1.38 c1.68 0 3.0333 -0.3 4.06 -0.9 s1.54 -1.4867 1.54 -2.66 c0 -0.77332 -0.28 -1.4266 -0.84 -1.96 s-1.3067 -0.96664 -2.24 -1.3 s-2.5066 -0.75332 -4.72 -1.26 c-2.56 -0.64 -4.4268 -1.32 -5.6 -2.04 s-2.0666 -1.5933 -2.68 -2.62 s-0.92 -2.26 -0.92 -3.7 c0 -1.7867 0.51332 -3.3467 1.54 -4.68 s2.3667 -2.32 4.02 -2.96 s3.36 -0.96 5.12 -0.96 z M175.88000000000002 11.440000000000001 l0 10.76 l0.12 0 c0.64 -1.0667 1.5067 -1.9067 2.6 -2.52 s2.2533 -0.92 3.48 -0.92 c2.64 0 4.5532 0.66668 5.74 2 s1.78 3.44 1.78 6.32 l0 12.92 l-5.68 0 l0 -11.76 c0 -1.68 -0.27332 -2.9333 -0.82 -3.76 s-1.4867 -1.24 -2.82 -1.24 c-1.52 0 -2.6333 0.46 -3.34 1.38 s-1.06 2.4333 -1.06 4.54 l0 10.84 l-5.68 0 l0 -28.56 l5.68 0 z M203.96 18.76 c3.3067 0 5.92 1.0067 7.84 3.02 s2.88 4.6468 2.88 7.9 c0 3.28 -0.98 5.9132 -2.94 7.9 s-4.5532 2.98 -7.78 2.98 c-3.28 0 -5.88 -1.0067 -7.8 -3.02 s-2.88 -4.6332 -2.88 -7.86 c0 -3.3333 0.98 -5.9868 2.94 -7.96 s4.54 -2.96 7.74 -2.96 z M198.96 29.68 c0 2.1067 0.42668 3.7333 1.28 4.88 s2.0933 1.72 3.72 1.72 c1.68 0 2.94 -0.58668 3.78 -1.76 s1.26 -2.7866 1.26 -4.84 c0 -2.1333 -0.43332 -3.7733 -1.3 -4.92 s-2.1267 -1.72 -3.78 -1.72 c-1.6 0 -2.8267 0.57332 -3.68 1.72 s-1.28 2.7867 -1.28 4.92 z M230.00000000000003 18.76 c2.8533 0 5.1332 1 6.84 3 s2.56 4.7068 2.56 8.12 c0 3.12 -0.82 5.68 -2.46 7.68 s-3.8467 3 -6.62 3 c-2.72 0 -4.7868 -1.04 -6.2 -3.12 l-0.08 0 l0 9.84 l-5.68 0 l0 -27.96 l5.4 0 l0 2.64 l0.08 0 c1.36 -2.1333 3.4133 -3.2 6.16 -3.2 z M223.84 29.72 c0 2.0267 0.42672 3.6267 1.28 4.8 s2.08 1.76 3.68 1.76 c1.6533 0 2.8866 -0.58668 3.7 -1.76 s1.22 -2.7733 1.22 -4.8 c0 -2.08 -0.44 -3.7133 -1.32 -4.9 s-2.1067 -1.78 -3.68 -1.78 s-2.78 0.58668 -3.62 1.76 s-1.26 2.8133 -1.26 4.92 z"
        ></path>
      </g>
    </svg>