<svg width="200" height="550" xmlns="http://www.w3.org/2000/svg" xmlns:xlink="http://www.w3.org/1999/xlink">
 <g>
  <title>Layer 1</title>
  <g id="svg_77" stroke="null">
   <g id="svg_76" transform="matrix(0.555899 0 0 0.555899 -610.71 -128.504)" stroke="null">
    <title>Layer 1</title>
    <g id="svg_49" stroke="null">
     <circle transform="matrix(0.615437 0 0 0.615437 -1.47674 -1332.88)" id="svg_68" fill="#3f3d56" r="243.39999" cy="3342.66162" cx="2087.20679" stroke="null"/>
     <path id="svg_67" opacity="0.1" d="m1407.53975,724.31366c0,68.74433 -55.73399,124.47216 -124.47216,124.47216c-3.94495,0 -7.85298,-0.17848 -11.69331,-0.54158c-61.88836,-5.77895 -110.62482,-56.85408 -112.69885,-119.73329q-0.07385,-2.09864 -0.07385,-4.19728q0,-4.71425 0.3508,-9.35464c4.78195,-64.36857 58.52807,-115.08674 124.12136,-115.08674c56.62022,0 104.40276,37.80015 119.49943,89.53379c0.26464,0.92931 0.52928,1.84631 0.78161,2.80024q1.38473,5.23122 2.33866,10.64091a125.54918,125.54918 0 0 1 1.84631,21.46645l0,-0.00002z" stroke="null"/>
     <path id="svg_66" opacity="0.4" fill="#585ec7" d="m1407.53975,724.31366c0,68.74433 -55.73399,124.47216 -124.47216,124.47216c-67.33498,0 -122.18889,-53.48149 -124.39831,-120.27488c14.19198,0.40619 28.6486,-0.06154 42.05897,-4.68348c14.53663,-5.0035 26.98076,-14.57971 40.36652,-22.15574c35.95999,-20.27865 78.87442,-25.73758 119.95485,-21.72493c13.95196,1.36012 28.42089,4.19113 41.51739,9.39773a124.55832,124.55832 0 0 1 4.97273,34.93837l0,0.03077l0.00001,0z" stroke="null"/>
     <path id="svg_65" opacity="0.4" fill="#585ec7" d="m1407.53975,724.31366c0,68.74433 -55.73399,124.47216 -124.47216,124.47216c-3.94495,0 -7.85298,-0.17848 -11.69331,-0.54158a124.47831,124.47831 0 0 1 -69.28591,-107.43071c14.19198,0.40619 28.6486,-0.06154 42.05897,-4.68348c14.54278,-5.0035 26.98076,-14.57971 40.36652,-22.15574c35.63381,-20.10018 78.09282,-25.63296 118.83476,-21.82956q1.38473,5.23122 2.33866,10.64091a125.54918,125.54918 0 0 1 1.85247,21.52799l0,0.00001z" stroke="null"/>
     <path id="svg_64" fill="#585ec7" d="m1407.53975,724.31366c0,68.74433 -55.73399,124.47216 -124.47216,124.47216s-124.47216,-55.72783 -124.47216,-124.47216q0,-4.71425 0.3508,-9.35464a98.82074,98.82074 0 0 1 28.42089,7.90837c14.59817,6.55441 27.58389,16.6168 42.76673,21.66954c11.07787,3.69262 22.85734,4.5727 34.51371,4.9235c14.55509,0.46158 29.4179,0.09232 43.18522,-4.6527c14.53663,-5.0035 26.97461,-14.57971 40.36652,-22.12496c17.8046,-10.04393 37.33242,-16.45063 57.48798,-19.87247a125.54918,125.54918 0 0 1 1.85247,21.50337l0,-0.00001z" stroke="null"/>
     <path id="svg_57" opacity="0.6" fill="#fe7d1e" d="m1263.98904,788.90379c14.00119,-2.58484 14.06274,-22.99273 14.06274,-22.99273c-0.61544,2.91717 -2.04941,3.20027 -9.34234,5.53893s-11.69331,9.87777 -11.69331,9.87777c-21.79263,-24.8452 -40.52654,2.20942 -40.52654,2.20942a25.84836,25.84836 0 0 0 13.04111,10.09932c-0.86161,2.1048 -1.77246,5.04043 -0.7016,6.11745c1.23087,1.23087 4.59732,-2.55406 6.4067,-4.82503c0.54158,0.06154 1.08317,0.11693 1.62475,0.15386c1.04009,2.08633 3.61877,7.56988 3.61262,10.82554c0,0 5.94512,-0.45542 5.19429,-11.29327a44.84075,44.84075 0 0 0 10.93632,-3.25566s-0.61544,16.90606 4.30806,17.79229s9.74852,6.88059 9.74852,6.88059c7.31139,-14.25968 -6.67134,-27.12847 -6.67134,-27.12847l0.00002,-0.00001z" stroke="null"/>
     <path id="svg_56" opacity="0.6" fill="#fe7d1e" d="m1351.12263,756.90721c13.95811,2.79408 21.58338,-16.13676 21.58338,-16.13676c-1.63091,2.46175 -3.07719,2.20942 -10.72707,1.65553s-14.51816,4.81272 -14.51816,4.81272c-11.02248,-31.12881 -38.45867,-12.92418 -38.45867,-12.92418a25.84836,25.84836 0 0 0 8.36995,14.2166c-1.58167,1.63706 -3.51415,4.02496 -2.91717,5.41585c0.68929,1.63091 5.21275,-0.66467 7.73604,-2.1048c0.48004,0.26464 0.96624,0.51081 1.45243,0.74468c0.19079,2.32635 0.55389,8.3761 -0.65852,11.3979c0,0 5.69279,1.77861 9.01,-8.56688a44.63766,44.63766 0 0 0 11.30558,1.03393s-6.85597,15.46594 -2.58484,18.13078s6.49902,10.00085 6.49902,10.00085c12.09334,-10.55475 3.90803,-27.67621 3.90803,-27.67621l0,-0.00001z" stroke="null"/>
     <circle transform="matrix(0.615437 0 0 0.615437 -1.47674 -1332.88)" id="svg_55" opacity="0.25" fill="#fff" r="1.04" cy="3560.57162" cx="1732.55679" stroke="null"/>
     <circle transform="matrix(0.615437 0 0 0.615437 -1.47674 -1332.88)" id="svg_54" opacity="0.25" fill="#fff" r="1.04" cy="3565.38162" cx="1742.26679" stroke="null"/>
     <circle transform="matrix(0.615437 0 0 0.615437 -1.47674 -1332.88)" id="svg_53" opacity="0.25" fill="#fff" r="1.04" cy="3529.72162" cx="1638.84679" stroke="null"/>
     <circle transform="matrix(0.615437 0 0 0.615437 -1.47674 -1332.88)" id="svg_52" opacity="0.25" fill="#fff" r="1.04" cy="3537.96162" cx="1638.33679" stroke="null"/>
     <use transform="matrix(0.186152 0 0 0.186152 1012.77 854.55)" xlink:href="#svg_118" id="svg_50" y="-2494.82773" x="-726.23724" stroke="null"/>
    </g>
    <g id="svg_39" stroke="null">
     <path id="svg_48" opacity="0.1" d="m1153.31461,366.23954c0.02209,0 0.04399,0.00088 0.0659,0.00167a1.80071,1.80071 0 0 0 0,3.59904c-0.02192,0.00079 -0.0438,0.00167 -0.0659,0.00167a1.80119,1.80119 0 0 1 0,-3.60237l0,-0.00001z" stroke="null"/>
     <path id="svg_47" opacity="0.1" d="m1159.24256,371.11565a1.7491,1.7491 0 0 1 -1.05208,0.35241l-2.10761,0a1.74913,1.74913 0 0 1 -1.05209,-0.35241l4.21179,0l-0.00001,0z" stroke="null"/>
     <path id="svg_46" fill="#fbbebe" d="m1172.85282,384.1669s0.45406,1.30841 0.86966,0.96003l-0.33125,-1.71025l-0.53841,0.75021l0,0.00001z" stroke="null"/>
     <circle transform="matrix(0.139614 0 0 0.139614 0 0)" id="svg_45" fill="#fff" r="5" cy="2925.99576" cx="8274.54326" stroke="null"/>
     <circle transform="matrix(0.139614 0 0 0.139614 0 0)" id="svg_44" fill="#fff" r="5" cy="2925.99576" cx="8367.54326" stroke="null"/>
     <path id="svg_43" fill="#007cc3" d="m1361.32956,460.32161l-25.11717,0l0,-73.96352a14.81248,14.81248 0 0 0 -14.81248,-14.81248l-5.88544,0a14.81248,14.81248 0 0 0 -14.81248,14.81248l0,73.96352l-70.84684,0a8.45614,8.45614 0 0 1 -7.47669,-12.40647l74.98348,-141.92a14.81248,14.81248 0 0 0 -6.77179,-20.31391l-4.42648,-2.09024a14.81248,14.81248 0 0 0 -19.38817,6.41106l-91.45232,171.07882a20.08547,20.08547 0 0 0 -2.37204,9.46896l0,0a20.08552,20.08552 0 0 0 20.08552,20.08547l107.66533,0l0,46.76984a17.75515,17.75515 0 0 0 17.7552,17.75515l0,0a17.75515,17.75515 0 0 0 17.75515,-17.75515l0,-46.76979l25.11712,0a15.15685,15.15685 0 0 0 15.15685,-15.15685l0,0a15.15685,15.15685 0 0 0 -15.15675,-15.1569l0,0.00001z" stroke="null"/>
     <path id="svg_42" stroke-miterlimit="10" fill="none" d="m1369.62451,454.57417l-25.11712,0l0,-73.96352a14.81248,14.81248 0 0 0 -14.81248,-14.81248l-5.88544,0a14.81248,14.81248 0 0 0 -14.81248,14.81248l0,73.96352l-70.84684,0a8.45615,8.45615 0 0 1 -7.47674,-12.40647l74.98353,-141.92a14.81248,14.81248 0 0 0 -6.77184,-20.31391l-4.42643,-2.09024a14.81248,14.81248 0 0 0 -19.38822,6.41106l-91.45227,171.07882a20.08552,20.08552 0 0 0 -2.37204,9.46896l0,0a20.08552,20.08552 0 0 0 20.08552,20.08552l107.66533,0l0,46.76979a17.75515,17.75515 0 0 0 17.75515,17.7552l0,0a17.75515,17.75515 0 0 0 17.75515,-17.7552l0,-46.76979l25.11717,0a15.15685,15.15685 0 0 0 15.15685,-15.15685l0,0a15.15685,15.15685 0 0 0 -15.1568,-15.1569l0,0.00001z" stroke="#3f3d56"/>
     <path id="svg_41" fill="#007cc3" d="m1357.53469,1077.03954l-25.11717,0l0,-73.96353a14.81248,14.81248 0 0 0 -14.81248,-14.81248l-5.88544,0a14.81248,14.81248 0 0 0 -14.81248,14.81248l0,73.96353l-70.84684,0a8.45614,8.45614 0 0 1 -7.47669,-12.40647l74.98348,-141.92a14.81248,14.81248 0 0 0 -6.77179,-20.3139l-4.42649,-2.09024a14.81248,14.81248 0 0 0 -19.38816,6.41106l-91.45232,171.07882a20.08547,20.08547 0 0 0 -2.37204,9.46896l0,0a20.08552,20.08552 0 0 0 20.08552,20.08547l107.66533,0l0,46.76984a17.75515,17.75515 0 0 0 17.7552,17.75515l0,0a17.75515,17.75515 0 0 0 17.75515,-17.75515l0,-46.76978l25.11712,0a15.15685,15.15685 0 0 0 15.15685,-15.15686l0,0a15.15685,15.15685 0 0 0 -15.15675,-15.1569z" stroke="null"/>
     <path id="svg_78" stroke-miterlimit="10" fill="none" d="m1365.00914,1071.49724l-25.11712,0l0,-73.96352a14.81248,14.81248 0 0 0 -14.81248,-14.81248l-5.88544,0a14.81248,14.81248 0 0 0 -14.81248,14.81248l0,73.96352l-70.84684,0a8.45615,8.45615 0 0 1 -7.47674,-12.40647l74.98353,-141.92a14.81248,14.81248 0 0 0 -6.77184,-20.31391l-4.42643,-2.09024a14.81248,14.81248 0 0 0 -19.38822,6.41106l-91.45227,171.07882a20.08552,20.08552 0 0 0 -2.37204,9.46896l0,0a20.08552,20.08552 0 0 0 20.08552,20.08552l107.66533,0l0,46.76979a17.75515,17.75515 0 0 0 17.75515,17.7552l0,0a17.75515,17.75515 0 0 0 17.75515,-17.7552l0,-46.76979l25.11717,0a15.15685,15.15685 0 0 0 15.15685,-15.15685l0,0a15.15685,15.15685 0 0 0 -15.1568,-15.1569l0,0.00001z" stroke="#3f3d56"/>
    </g>
   </g>
  </g>
 </g>

</svg>