<svg width="800" height="600" xmlns="http://www.w3.org/2000/svg" xmlns:xlink="http://www.w3.org/1999/xlink">

 <g>
  <title>Layer 1</title>

  <g stroke="null" id="svg_116">
   <path stroke="null" id="svg_7" fill="#3f3d56" d="m727.97812,487.89285c0,3.3726 -29.50406,6.45594 -78.28976,8.82537c-8.86845,0.42465 -18.37695,0.83084 -28.45781,1.23087q-13.07188,0.4985 -27.39311,0.92931q-13.88426,0.41234 -28.82092,0.7693c-31.46115,0.75083 -66.23334,1.29242 -103.17804,1.56321q-13.4473,0.10462 -27.25771,0.15386q-14.38277,0.05539 -29.09171,0.04923c-178.10751,0 -322.48906,-6.04359 -322.48906,-13.50269s144.38155,-13.53962 322.48906,-13.53962c76.67731,0 147.08948,1.1201 202.44189,2.99102l6.04975,0.20309l0.03693,0c69.71672,2.49867 113.96049,6.1913 113.96049,10.32704z"/>
   <path stroke="null" id="svg_8" opacity="0.1" d="m727.97812,487.89285c0,3.3726 -29.50406,6.45594 -78.28976,8.82537c-8.86845,0.42465 -18.37695,0.83084 -28.45781,1.23087q-13.07188,0.4985 -27.39311,0.92931q-13.88426,0.41234 -28.82092,0.7693c-31.46115,0.75083 -66.23334,1.29242 -103.17804,1.56321q-13.4473,0.10462 -27.25771,0.15386q-14.38277,0.05539 -29.09171,0.04923c-178.10751,0 -322.48906,-6.04359 -322.48906,-13.50269s144.38155,-13.53962 322.48906,-13.53962c76.67731,0 147.08948,1.1201 202.44189,2.99102l6.04975,0.20309l0.03693,0c69.71672,2.49867 113.96049,6.1913 113.96049,10.32704z"/>
   <path stroke="null" id="svg_9" fill="#3f3d56" d="m727.97812,482.8278c0,3.3726 -29.50406,6.45594 -78.28976,8.81921c-8.86845,0.43081 -18.37695,0.83699 -28.45781,1.23087q-13.07188,0.4985 -27.39311,0.92931q-13.88426,0.41234 -28.82092,0.7693c-31.46115,0.75083 -66.23334,1.29242 -103.17804,1.56321q-13.4473,0.09232 -27.25771,0.15386q-14.38277,0.04923 -29.09171,0.04923c-178.10751,0 -322.48906,-6.04359 -322.48906,-13.50269s144.38155,-13.50885 322.48906,-13.50885c76.67731,0 147.08948,1.1201 202.44189,2.99102l6.04975,0.20309l0.03693,0c69.71672,2.47406 113.96049,6.16668 113.96049,10.30242z"/>
   <path stroke="null" id="svg_10" fill="#3f3d56" d="m727.97812,483.62164c0,3.3726 -29.50406,6.45594 -78.28976,8.83152c-8.86845,0.42465 -18.37695,0.83084 -28.45781,1.23087q-13.07188,0.4862 -27.39311,0.92931q-13.88426,0.41234 -28.81477,0.7693c-31.4673,0.75083 -66.2395,1.29242 -103.18419,1.56321q-13.44115,0.09232 -27.25771,0.1477q-14.38277,0.05539 -29.09171,0.06154c-178.10751,0 -322.48906,-6.04975 -322.48906,-13.53962c0,-6.43132 107.44917,-11.81639 251.32606,-13.17035q12.30874,-0.12309 24.89443,-0.19694q22.6604,-0.12924 46.26856,-0.1354t46.26856,0.1354q12.61031,0.08001 24.88828,0.19694c48.89648,0.45542 93.59568,1.38473 131.2789,2.65869l6.04975,0.20309l0.04308,0c69.71672,2.49252 113.96049,6.18514 113.96049,10.31473z"/>
   <path stroke="null" id="svg_11" fill="#f2f2f2" d="m561.81009,230.80014l-49.89964,2.30173l49.03188,-10.01316a62.233,62.233 0 0 0 -3.69262,-12.88725a62.3684,62.3684 0 1 0 -79.92682,-95.39276l34.79682,44.92691l-40.73578,-38.34173a62.49764,62.49764 0 0 0 -12.40106,47.85024l35.65843,9.84699l-34.46448,-3.97572a63.19308,63.19308 0 0 0 2.70792,8.19147a62.37455,62.37455 0 0 0 -21.08488,74.18479a62.3684,62.3684 0 0 0 8.19147,106.07674a21.50337,21.50337 0 0 0 -3.2372,6.72057a20.49406,20.49406 0 0 0 -0.24002,10.75784a21.31259,21.31259 0 0 0 -5.71126,20.03248a21.31259,21.31259 0 0 0 -5.71126,20.03248a21.30028,21.30028 0 0 0 -5.71126,20.03248a20.54945,20.54945 0 0 0 -5.47124,9.27464c-2.57868,9.04693 0.93546,17.98923 7.85298,19.95863s14.61048,-3.77263 17.18916,-12.82571a20.56175,20.56175 0 0 0 0.24617,-10.75784a21.34951,21.34951 0 0 0 5.71126,-20.03248a21.35567,21.35567 0 0 0 5.71126,-20.03863a21.33721,21.33721 0 0 0 5.71126,-20.03248a20.48175,20.48175 0 0 0 5.46508,-9.27464a21.3249,21.3249 0 0 0 0.80007,-7.31139a62.3684,62.3684 0 0 0 63.45157,-85.7427a62.39917,62.39917 0 0 0 25.73143,-53.54303l0.03077,-0.01846z"/>
   <ellipse stroke="null" transform="matrix(0.615437 0 0 0.615437 -1.47674 -1332.88)" id="svg_12" opacity="0.1" ry="12.93" rx="122.29" cy="2949.80041" cx="661.26299"/>
   <circle stroke="null" transform="matrix(0.615437 0 0 0.615437 -1.47674 -1332.88)" id="svg_13" fill="#3f3d56" r="243.39999" cy="2708.75041" cx="661.26299"/>
   <path stroke="null" id="svg_14" opacity="0.1" d="m529.96122,334.18127c0,68.74433 -55.73399,124.47216 -124.47216,124.47216c-3.94495,0 -7.85298,-0.17848 -11.69331,-0.54158c-61.88836,-5.77895 -110.62482,-56.85408 -112.69885,-119.73329q-0.07385,-2.09864 -0.07385,-4.19728q0,-4.71425 0.3508,-9.35464c4.78195,-64.36857 58.52807,-115.08674 124.12136,-115.08674c56.62022,0 104.40276,37.80015 119.49943,89.53379c0.26464,0.92931 0.52928,1.84631 0.78161,2.80024q1.38473,5.23122 2.33866,10.64091a125.54918,125.54918 0 0 1 1.84631,21.46645z"/>
   <path stroke="null" id="svg_15" opacity="0.4" fill="#585ec7" d="m529.96122,334.18127c0,68.74433 -55.73399,124.47216 -124.47216,124.47216c-67.33498,0 -122.18889,-53.48149 -124.39831,-120.27488c14.19198,0.40619 28.6486,-0.06154 42.05897,-4.68348c14.53663,-5.0035 26.98076,-14.57971 40.36652,-22.15574c35.95999,-20.27865 78.87442,-25.73758 119.95485,-21.72493c13.95196,1.36012 28.42089,4.19113 41.51739,9.39773a124.55832,124.55832 0 0 1 4.97273,34.93837l0,0.03077z"/>
   <path stroke="null" id="svg_16" opacity="0.4" fill="#585ec7" d="m529.96122,334.18127c0,68.74433 -55.73399,124.47216 -124.47216,124.47216c-3.94495,0 -7.85298,-0.17848 -11.69331,-0.54158a124.47831,124.47831 0 0 1 -69.28591,-107.43071c14.19198,0.40619 28.6486,-0.06154 42.05897,-4.68348c14.54278,-5.0035 26.98076,-14.57971 40.36652,-22.15574c35.63381,-20.10018 78.09282,-25.63296 118.83476,-21.82956q1.38473,5.23122 2.33866,10.64091a125.54918,125.54918 0 0 1 1.85247,21.52799z"/>
   <path stroke="null" id="svg_17" fill="#585ec7" d="m529.96122,334.18127c0,68.74433 -55.73399,124.47216 -124.47216,124.47216s-124.47216,-55.72783 -124.47216,-124.47216q0,-4.71425 0.3508,-9.35464a98.82074,98.82074 0 0 1 28.42089,7.90837c14.59817,6.55441 27.58389,16.6168 42.76673,21.66954c11.07787,3.69262 22.85734,4.5727 34.51371,4.9235c14.55509,0.46158 29.4179,0.09232 43.18522,-4.6527c14.53663,-5.0035 26.97461,-14.57971 40.36652,-22.12496c17.8046,-10.04393 37.33242,-16.45063 57.48798,-19.87247a125.54918,125.54918 0 0 1 1.85247,21.50337z"/>
   <path stroke="null" id="svg_18" fill="#f2f2f2" d="m691.05189,93.50227l-11.23173,7.12061l6.81904,-12.40106a11.07787,11.07787 0 0 0 -6.76981,-2.42482l-0.18463,0a13.28113,13.28113 0 0 1 -2.32635,-0.17232l-3.80956,2.41251l1.63091,-2.96641a13.57654,13.57654 0 0 1 -6.65903,-5.05274l-6.81289,4.30806l4.30806,-7.82836c-3.98803,-4.78195 -9.35464,-7.71143 -15.269,-7.71143c-7.08368,0 -13.39191,4.20959 -17.46611,10.7763a13.05958,13.05958 0 0 1 -11.5456,6.22822l-0.38157,0c-7.82221,0 -14.15505,8.86845 -14.15505,19.81092s6.339,19.80477 14.15505,19.80477a10.65322,10.65322 0 0 0 4.9235,-1.23087c5.10197,-2.65253 11.79793,-2.70792 17.13992,-0.33849a17.89691,17.89691 0 0 0 14.57355,0.03693c5.30507,-2.32635 11.92102,-2.27712 16.99222,0.32618a10.60398,10.60398 0 0 0 4.88042,1.23087c7.82221,0 14.15505,-8.86845 14.15505,-19.80477a25.14676,25.14676 0 0 0 -2.96641,-12.12411z"/>
   <path stroke="null" id="svg_19" opacity="0.03" d="m669.8747,122.4832a20.92486,20.92486 0 0 0 -12.13642,1.31704a17.84768,17.84768 0 0 1 -14.5674,0c-5.34815,-2.36943 -12.0441,-2.3202 -17.14608,0.33234a10.58552,10.58552 0 0 1 -4.9235,1.23087c-6.97906,-0.02462 -12.73339,-7.04676 -13.93965,-16.27831a13.28113,13.28113 0 0 0 3.47107,-3.74186c4.07419,-6.56671 10.38858,-10.7763 17.47226,-10.7763s13.31806,4.16036 17.39225,10.65322a13.41038,13.41038 0 0 0 11.5456,6.34516l0.17848,0c5.52047,0.01231 10.32088,4.44961 12.65339,10.91785z"/>
   <path stroke="null" id="svg_20" fill="#f2f2f2" d="m201.82245,85.46466l-5.60048,3.55107l3.40337,-6.15437a5.53893,5.53893 0 0 0 -3.39106,-1.23087l-0.08616,0a6.64057,6.64057 0 0 1 -1.16318,-0.08616l-1.9017,1.23087l0.81853,-1.4832a6.76981,6.76981 0 0 1 -3.32336,-2.51714l-3.39721,2.15403l2.14788,-3.90803a9.96393,9.96393 0 0 0 -7.61296,-3.84648c-3.53876,0 -6.68365,2.1048 -8.71459,5.37892a6.51748,6.51748 0 0 1 -5.76049,3.07719l-0.19079,0c-3.90187,0 -7.06522,4.41884 -7.06522,9.87777s3.16335,9.84699 7.06522,9.84699a5.30507,5.30507 0 0 0 2.46175,-0.61544a10.19164,10.19164 0 0 1 8.54842,-0.16617a8.93615,8.93615 0 0 0 7.26831,0a10.22857,10.22857 0 0 1 8.47457,0.16001a5.22506,5.22506 0 0 0 2.43098,0.61544c3.90187,0 7.06522,-4.41884 7.06522,-9.84699a12.46876,12.46876 0 0 0 -1.47705,-6.03744z"/>
   <path stroke="null" id="svg_21" opacity="0.03" d="m191.2677,99.92128a10.38242,10.38242 0 0 0 -6.04975,0.65852a8.93615,8.93615 0 0 1 -7.26831,0a10.20395,10.20395 0 0 0 -8.55458,0.16617a5.26199,5.26199 0 0 1 -2.46175,0.61544c-3.47107,0 -6.35131,-3.48953 -6.95444,-8.093a6.72673,6.72673 0 0 0 1.73553,-1.84631c2.03094,-3.27413 5.18198,-5.37277 8.71459,-5.37277s6.64057,2.07402 8.67151,5.31122a6.67749,6.67749 0 0 0 5.76049,3.16335l0.09232,0c2.76331,-0.04308 5.13275,2.17249 6.31439,5.39738z"/>
   <path stroke="null" id="svg_22" fill="#f2f2f2" d="m259.83971,153.43354l9.02231,5.7051l-5.46508,-9.93316a8.91153,8.91153 0 0 1 5.44662,-1.93863l0.14155,0a9.97008,9.97008 0 0 0 1.84631,-0.14155l3.04641,1.93863l-1.32319,-2.38174a10.86862,10.86862 0 0 0 5.33584,-4.04958l5.45893,3.46491l-3.40952,-6.24053c3.19412,-3.82802 7.49602,-6.15437 12.22874,-6.15437c5.68048,0 10.73322,3.3726 14.00119,8.61612a10.46243,10.46243 0 0 0 9.23156,4.9912l0.30772,0c6.26515,0 11.34251,7.10214 11.34251,15.86597s-5.07736,15.87212 -11.34251,15.87212a8.52996,8.52996 0 0 1 -3.95726,-0.99085a16.38294,16.38294 0 0 0 -13.7304,-0.27079a14.2966,14.2966 0 0 1 -11.69331,0.03077a16.37063,16.37063 0 0 0 -13.61347,0.26464a8.55458,8.55458 0 0 1 -3.90803,0.96624c-6.2713,0 -11.34866,-7.1083 -11.34866,-15.87212a20.15557,20.15557 0 0 1 2.38174,-9.74237z"/>
   <path stroke="null" id="svg_23" opacity="0.03" d="m276.795,176.65398a16.78913,16.78913 0 0 1 9.72391,1.05855a14.32738,14.32738 0 0 0 11.69331,0a16.37678,16.37678 0 0 1 13.73656,0.26464a8.50534,8.50534 0 0 0 3.95111,0.99085c5.56971,0 10.19779,-5.60663 11.16403,-13.00419a10.73322,10.73322 0 0 1 -2.81255,-3.02795c-3.26797,-5.25583 -8.32071,-8.61612 -14.00119,-8.61612s-10.66553,3.33567 -13.9335,8.54227a10.73322,10.73322 0 0 1 -9.23156,5.07736l-0.14155,0c-4.4373,-0.01846 -8.27763,3.53261 -10.14856,8.71459z"/>
   <path stroke="null" id="svg_46" opacity="0.6" fill="#fe7d1e" d="m386.41051,398.7714c14.00119,-2.58484 14.06274,-22.99273 14.06274,-22.99273c-0.61544,2.91717 -2.04941,3.20027 -9.34234,5.53893s-11.69331,9.87777 -11.69331,9.87777c-21.79263,-24.8452 -40.52654,2.20942 -40.52654,2.20942a25.84836,25.84836 0 0 0 13.04111,10.09932c-0.86161,2.1048 -1.77246,5.04043 -0.7016,6.11745c1.23087,1.23087 4.59732,-2.55406 6.4067,-4.82503c0.54158,0.06154 1.08317,0.11693 1.62475,0.15386c1.04009,2.08633 3.61877,7.56988 3.61262,10.82554c0,0 5.94512,-0.45542 5.19429,-11.29327a44.84075,44.84075 0 0 0 10.93632,-3.25566s-0.61544,16.90606 4.30806,17.79229s9.74852,6.88059 9.74852,6.88059c7.31139,-14.25968 -6.67134,-27.12847 -6.67134,-27.12847z"/>
   <path stroke="null" id="svg_47" opacity="0.6" fill="#fe7d1e" d="m473.5441,366.77482c13.95811,2.79408 21.58338,-16.13676 21.58338,-16.13676c-1.63091,2.46175 -3.07719,2.20942 -10.72707,1.65553s-14.51816,4.81272 -14.51816,4.81272c-11.02248,-31.12881 -38.45867,-12.92418 -38.45867,-12.92418a25.84836,25.84836 0 0 0 8.36995,14.2166c-1.58167,1.63706 -3.51415,4.02496 -2.91717,5.41585c0.68929,1.63091 5.21275,-0.66467 7.73604,-2.1048c0.48004,0.26464 0.96624,0.51081 1.45243,0.74468c0.19079,2.32635 0.55389,8.3761 -0.65852,11.3979c0,0 5.69279,1.77861 9.01,-8.56688a44.63766,44.63766 0 0 0 11.30558,1.03393s-6.85597,15.46594 -2.58484,18.13078s6.49902,10.00085 6.49902,10.00085c12.09334,-10.55475 3.90803,-27.67621 3.90803,-27.67621z"/>
   <circle stroke="null" transform="matrix(0.615437 0 0 0.615437 -1.47674 -1332.88)" id="svg_53" opacity="0.25" fill="#fff" r="1.04" cy="2926.66041" cx="306.61299"/>
   <circle stroke="null" transform="matrix(0.615437 0 0 0.615437 -1.47674 -1332.88)" id="svg_54" opacity="0.25" fill="#fff" r="1.04" cy="2931.47041" cx="316.32299"/>
   <circle stroke="null" transform="matrix(0.615437 0 0 0.615437 -1.47674 -1332.88)" id="svg_63" opacity="0.25" fill="#fff" r="1.04" cy="2895.81041" cx="212.90299"/>
   <circle stroke="null" transform="matrix(0.615437 0 0 0.615437 -1.47674 -1332.88)" id="svg_64" opacity="0.25" fill="#fff" r="1.04" cy="2904.05041" cx="212.39299"/>
   <path stroke="null" id="svg_105" fill="#9f9eff" d="m843.59202,300.01276l0.37506,0.25835a0,0 0 0 1 0,0l-17.76314,25.78764a0,0 0 0 1 0,0l-0.35985,-0.24787a0.88189,0.88189 0 0 1 -0.27442,-1.48935l16.54821,-24.02386a0.88189,0.88189 0 0 1 1.47415,-0.2849z"/>
   <use transform="matrix(0.186152 0 0 0.186152 0 0)" x="0" y="0" xlink:href="#svg_118" id="svg_119"/>
  </g>
  <g id="svg_237">
   <path id="svg_205" opacity="0.1" d="m118.81301,30.63009c0.02209,0 0.04399,0.00088 0.0659,0.00167a1.80071,1.80071 0 0 0 0,3.59904c-0.02192,0.00079 -0.0438,0.00167 -0.0659,0.00167a1.80119,1.80119 0 0 1 0,-3.60237z"/>
   <path id="svg_206" opacity="0.1" d="m124.74096,35.5062a1.7491,1.7491 0 0 1 -1.05208,0.35241l-2.10761,0a1.74913,1.74913 0 0 1 -1.05209,-0.35241l4.21179,0z"/>
   <path id="svg_207" fill="#fbbebe" d="m138.35122,48.55745s0.45406,1.30841 0.86966,0.96003l-0.33125,-1.71025l-0.53841,0.75021z"/>
   <circle transform="matrix(0.139614 0 0 0.139614 0 0)" id="svg_233" fill="#fff" r="5" cy="522.15749" cx="864.81572"/>
   <circle transform="matrix(0.139614 0 0 0.139614 0 0)" id="svg_234" fill="#fff" r="5" cy="522.15749" cx="957.81572"/>
   <path stroke="null" id="svg_239" fill="#007cc3" d="m237.59718,391.63523l-25.11717,0l0,-73.96352a14.81248,14.81248 0 0 0 -14.81248,-14.81248l-5.88544,0a14.81248,14.81248 0 0 0 -14.81248,14.81248l0,73.96352l-70.84684,0a8.45614,8.45614 0 0 1 -7.47669,-12.40647l74.98348,-141.92a14.81248,14.81248 0 0 0 -6.77179,-20.31391l-4.42648,-2.09024a14.81248,14.81248 0 0 0 -19.38817,6.41106l-91.45232,171.07882a20.08547,20.08547 0 0 0 -2.37204,9.46896l0,0a20.08552,20.08552 0 0 0 20.08552,20.08547l107.66533,0l0,46.76984a17.75515,17.75515 0 0 0 17.7552,17.75515l0,0a17.75515,17.75515 0 0 0 17.75515,-17.75515l0,-46.76979l25.11712,0a15.15685,15.15685 0 0 0 15.15685,-15.15685l0,0a15.15685,15.15685 0 0 0 -15.15675,-15.1569z"/>
   <path stroke="#3f3d56" id="svg_238" stroke-miterlimit="10" fill="none" d="m245.89215,388.19549l-25.11712,0l0,-73.96352a14.81248,14.81248 0 0 0 -14.81248,-14.81248l-5.88544,0a14.81248,14.81248 0 0 0 -14.81248,14.81248l0,73.96352l-70.84684,0a8.45615,8.45615 0 0 1 -7.47674,-12.40647l74.98353,-141.92a14.81248,14.81248 0 0 0 -6.77184,-20.31391l-4.42643,-2.09024a14.81248,14.81248 0 0 0 -19.38822,6.41106l-91.45227,171.07882a20.08552,20.08552 0 0 0 -2.37204,9.46896l0,0a20.08552,20.08552 0 0 0 20.08552,20.08552l107.66533,0l0,46.76979a17.75515,17.75515 0 0 0 17.75515,17.7552l0,0a17.75515,17.75515 0 0 0 17.75515,-17.7552l0,-46.76979l25.11717,0a15.15685,15.15685 0 0 0 15.15685,-15.15685l0,0a15.15685,15.15685 0 0 0 -15.1568,-15.1569z"/>
   <path stroke="null" id="svg_241" fill="#007cc3" d="m732.26386,392.96856l-25.11717,0l0,-73.96353a14.81248,14.81248 0 0 0 -14.81248,-14.81248l-5.88544,0a14.81248,14.81248 0 0 0 -14.81248,14.81248l0,73.96353l-70.84684,0a8.45614,8.45614 0 0 1 -7.47669,-12.40647l74.98348,-141.92a14.81248,14.81248 0 0 0 -6.77179,-20.3139l-4.42649,-2.09024a14.81248,14.81248 0 0 0 -19.38816,6.41106l-91.45232,171.07882a20.08547,20.08547 0 0 0 -2.37204,9.46896l0,0a20.08552,20.08552 0 0 0 20.08552,20.08547l107.66533,0l0,46.76984a17.75515,17.75515 0 0 0 17.7552,17.75515l0,0a17.75515,17.75515 0 0 0 17.75515,-17.75515l0,-46.76978l25.11712,0a15.15685,15.15685 0 0 0 15.15685,-15.15686l0,0a15.15685,15.15685 0 0 0 -15.15675,-15.1569z"/>
   <path stroke="#3f3d56" id="svg_240" stroke-miterlimit="10" fill="none" d="m739.89215,389.44282l-25.11711,0l0,-73.96352a14.81248,14.81248 0 0 0 -14.81248,-14.81248l-5.88544,0a14.81248,14.81248 0 0 0 -14.81248,14.81248l0,73.96352l-70.84685,0a8.45615,8.45615 0 0 1 -7.47674,-12.40647l74.98353,-141.92a14.81248,14.81248 0 0 0 -6.77184,-20.3139l-4.42643,-2.09025a14.81248,14.81248 0 0 0 -19.38822,6.41107l-91.45227,171.07882a20.08552,20.08552 0 0 0 -2.37204,9.46897l0,0a20.08552,20.08552 0 0 0 20.08552,20.08552l107.66534,0l0,46.76979a17.75515,17.75515 0 0 0 17.75515,17.7552l0,0a17.75515,17.75515 0 0 0 17.75515,-17.7552l0,-46.76979l25.11716,0a15.15685,15.15685 0 0 0 15.15686,-15.15686l0,0a15.15685,15.15685 0 0 0 -15.15681,-15.1569z"/>
  </g>
 </g>
</svg>