<svg width="250" height="676" xmlns="http://www.w3.org/2000/svg" xmlns:xlink="http://www.w3.org/1999/xlink">

 <g>
  <title>Layer 1</title>
  <g stroke="null" id="svg_77">
   <g stroke="null" transform="matrix(0.555899 0 0 0.555899 -610.71 -128.504)" id="svg_76">
    <title stroke="null">Layer 1</title>
    <g stroke="null" id="svg_49">
     <circle stroke="null" cx="2161.60922" cy="3526.01046" r="243.39999" fill="#3f3d56" id="svg_68" transform="matrix(0.615437 0 0 0.615437 -1.47674 -1332.88)"/>
     <path stroke="null" d="m1453.32976,837.15332c0,68.74433 -55.73399,124.47216 -124.47216,124.47216c-3.94495,0 -7.85298,-0.17848 -11.69331,-0.54158c-61.88836,-5.77895 -110.62482,-56.85408 -112.69885,-119.73329q-0.07385,-2.09864 -0.07385,-4.19728q0,-4.71425 0.3508,-9.35464c4.78195,-64.36857 58.52807,-115.08674 124.12136,-115.08674c56.62022,0 104.40276,37.80015 119.49943,89.53379c0.26464,0.92931 0.52928,1.84631 0.78161,2.80024q1.38473,5.23122 2.33866,10.64091a125.54918,125.54918 0 0 1 1.84631,21.46645l0,-0.00002z" opacity="0.1" id="svg_67"/>
     <path stroke="null" d="m1453.32976,837.15332c0,68.74433 -55.73399,124.47216 -124.47216,124.47216c-67.33498,0 -122.18889,-53.48149 -124.39831,-120.27488c14.19198,0.40619 28.6486,-0.06154 42.05897,-4.68348c14.53663,-5.0035 26.98076,-14.57971 40.36652,-22.15574c35.95999,-20.27865 78.87442,-25.73758 119.95485,-21.72493c13.95196,1.36012 28.42089,4.19113 41.51739,9.39773a124.55832,124.55832 0 0 1 4.97273,34.93837l0,0.03077l0.00001,0z" fill="#585ec7" opacity="0.4" id="svg_66"/>
     <path stroke="null" d="m1453.32976,837.15332c0,68.74433 -55.73399,124.47216 -124.47216,124.47216c-3.94495,0 -7.85298,-0.17848 -11.69331,-0.54158a124.47831,124.47831 0 0 1 -69.28591,-107.43071c14.19198,0.40619 28.6486,-0.06154 42.05897,-4.68348c14.54278,-5.0035 26.98076,-14.57971 40.36652,-22.15574c35.63381,-20.10018 78.09282,-25.63296 118.83476,-21.82956q1.38473,5.23122 2.33866,10.64091a125.54918,125.54918 0 0 1 1.85247,21.52799l0,0.00001z" fill="#585ec7" opacity="0.4" id="svg_65"/>
     <path stroke="null" d="m1453.32976,837.15332c0,68.74433 -55.73399,124.47216 -124.47216,124.47216s-124.47216,-55.72783 -124.47216,-124.47216q0,-4.71425 0.3508,-9.35464a98.82074,98.82074 0 0 1 28.42089,7.90837c14.59817,6.55441 27.58389,16.6168 42.76673,21.66954c11.07787,3.69262 22.85734,4.5727 34.51371,4.9235c14.55509,0.46158 29.4179,0.09232 43.18522,-4.6527c14.53663,-5.0035 26.97461,-14.57971 40.36652,-22.12496c17.8046,-10.04393 37.33242,-16.45063 57.48798,-19.87247a125.54918,125.54918 0 0 1 1.85247,21.50337l0,-0.00001z" fill="#585ec7" id="svg_64"/>
     <path stroke="null" d="m1309.77905,901.74345c14.00119,-2.58484 14.06274,-22.99273 14.06274,-22.99273c-0.61544,2.91717 -2.04941,3.20027 -9.34234,5.53893s-11.69331,9.87777 -11.69331,9.87777c-21.79263,-24.8452 -40.52654,2.20942 -40.52654,2.20942a25.84836,25.84836 0 0 0 13.04111,10.09932c-0.86161,2.1048 -1.77246,5.04043 -0.7016,6.11745c1.23087,1.23087 4.59732,-2.55406 6.4067,-4.82503c0.54158,0.06154 1.08317,0.11693 1.62475,0.15386c1.04009,2.08633 3.61877,7.56988 3.61262,10.82554c0,0 5.94512,-0.45542 5.19429,-11.29327a44.84075,44.84075 0 0 0 10.93632,-3.25566s-0.61544,16.90606 4.30806,17.79229s9.74852,6.88059 9.74852,6.88059c7.31139,-14.25968 -6.67134,-27.12847 -6.67134,-27.12847l0.00002,-0.00001z" fill="#fe7d1e" opacity="0.6" id="svg_57"/>
     <path stroke="null" d="m1396.91264,869.74687c13.95811,2.79408 21.58338,-16.13676 21.58338,-16.13676c-1.63091,2.46175 -3.07719,2.20942 -10.72707,1.65553s-14.51816,4.81272 -14.51816,4.81272c-11.02248,-31.12881 -38.45867,-12.92418 -38.45867,-12.92418a25.84836,25.84836 0 0 0 8.36995,14.2166c-1.58167,1.63706 -3.51415,4.02496 -2.91717,5.41585c0.68929,1.63091 5.21275,-0.66467 7.73604,-2.1048c0.48004,0.26464 0.96624,0.51081 1.45243,0.74468c0.19079,2.32635 0.55389,8.3761 -0.65852,11.3979c0,0 5.69279,1.77861 9.01,-8.56688a44.63766,44.63766 0 0 0 11.30558,1.03393s-6.85597,15.46594 -2.58484,18.13078s6.49902,10.00085 6.49902,10.00085c12.09334,-10.55475 3.90803,-27.67621 3.90803,-27.67621l0,-0.00001z" fill="#fe7d1e" opacity="0.6" id="svg_56"/>
     <circle stroke="null" cx="1806.95922" cy="3743.92046" r="1.04" fill="#fff" opacity="0.25" id="svg_55" transform="matrix(0.615437 0 0 0.615437 -1.47674 -1332.88)"/>
     <circle stroke="null" cx="1816.66922" cy="3748.73046" r="1.04" fill="#fff" opacity="0.25" id="svg_54" transform="matrix(0.615437 0 0 0.615437 -1.47674 -1332.88)"/>
     <circle stroke="null" cx="1713.24922" cy="3713.07046" r="1.04" fill="#fff" opacity="0.25" id="svg_53" transform="matrix(0.615437 0 0 0.615437 -1.47674 -1332.88)"/>
     <circle stroke="null" cx="1712.73922" cy="3721.31046" r="1.04" fill="#fff" opacity="0.25" id="svg_52" transform="matrix(0.615437 0 0 0.615437 -1.47674 -1332.88)"/>
     <use stroke="null" x="-489.04048" y="-2266.41604" id="svg_50" xlink:href="#svg_118" transform="matrix(0.186152 0 0 0.186152 1014.41 924.87)"/>
    </g>
    <g stroke="null" id="svg_39">
     <path stroke="null" d="m1162.95078,481.7715c0.02209,0 0.04399,0.00088 0.0659,0.00167a1.80071,1.80071 0 0 0 0,3.59904c-0.02192,0.00079 -0.0438,0.00167 -0.0659,0.00167a1.80119,1.80119 0 0 1 0,-3.60237l0,-0.00001z" opacity="0.1" id="svg_48"/>
     <path stroke="null" d="m1168.87873,486.64761a1.7491,1.7491 0 0 1 -1.05208,0.35241l-2.10761,0a1.74913,1.74913 0 0 1 -1.05209,-0.35241l4.21179,0l-0.00001,0z" opacity="0.1" id="svg_47"/>
     <path stroke="null" d="m1182.48899,499.69886s0.45406,1.30841 0.86966,0.96003l-0.33125,-1.71025l-0.53841,0.75021l0,0.00001z" fill="#fbbebe" id="svg_46"/>
     <circle stroke="null" cx="8343.56337" cy="3753.50573" r="5" fill="#fff" id="svg_45" transform="matrix(0.139614 0 0 0.139614 0 0)"/>
     <circle stroke="null" cx="8436.56337" cy="3753.50573" r="5" fill="#fff" id="svg_44" transform="matrix(0.139614 0 0 0.139614 0 0)"/>
     <path stroke="null" d="m1370.96573,575.85357l-25.11717,0l0,-73.96352a14.81248,14.81248 0 0 0 -14.81248,-14.81248l-5.88544,0a14.81248,14.81248 0 0 0 -14.81248,14.81248l0,73.96352l-70.84684,0a8.45614,8.45614 0 0 1 -7.47669,-12.40647l74.98348,-141.92a14.81248,14.81248 0 0 0 -6.77179,-20.31391l-4.42648,-2.09024a14.81248,14.81248 0 0 0 -19.38817,6.41106l-91.45232,171.07882a20.08547,20.08547 0 0 0 -2.37204,9.46896l0,0a20.08552,20.08552 0 0 0 20.08552,20.08547l107.66533,0l0,46.76984a17.75515,17.75515 0 0 0 17.7552,17.75515l0,0a17.75515,17.75515 0 0 0 17.75515,-17.75515l0,-46.76979l25.11712,0a15.15685,15.15685 0 0 0 15.15685,-15.15685l0,0a15.15685,15.15685 0 0 0 -15.15675,-15.1569l0,0.00001z" fill="#007cc3" id="svg_43"/>
     <path stroke="#3f3d56" d="m1379.26068,570.10613l-25.11712,0l0,-73.96352a14.81248,14.81248 0 0 0 -14.81248,-14.81248l-5.88544,0a14.81248,14.81248 0 0 0 -14.81248,14.81248l0,73.96352l-70.84684,0a8.45615,8.45615 0 0 1 -7.47674,-12.40647l74.98353,-141.92a14.81248,14.81248 0 0 0 -6.77184,-20.31391l-4.42643,-2.09024a14.81248,14.81248 0 0 0 -19.38822,6.41106l-91.45227,171.07882a20.08552,20.08552 0 0 0 -2.37204,9.46896l0,0a20.08552,20.08552 0 0 0 20.08552,20.08552l107.66533,0l0,46.76979a17.75515,17.75515 0 0 0 17.75515,17.7552l0,0a17.75515,17.75515 0 0 0 17.75515,-17.7552l0,-46.76979l25.11717,0a15.15685,15.15685 0 0 0 15.15685,-15.15685l0,0a15.15685,15.15685 0 0 0 -15.1568,-15.1569l0,0.00001z" fill="none" stroke-miterlimit="10" id="svg_42"/>
     <path stroke="null" d="m1367.17086,1192.5715l-25.11717,0l0,-73.96353a14.81248,14.81248 0 0 0 -14.81248,-14.81248l-5.88544,0a14.81248,14.81248 0 0 0 -14.81248,14.81248l0,73.96353l-70.84684,0a8.45614,8.45614 0 0 1 -7.47669,-12.40647l74.98348,-141.92a14.81248,14.81248 0 0 0 -6.77179,-20.3139l-4.42649,-2.09024a14.81248,14.81248 0 0 0 -19.38816,6.41106l-91.45232,171.07882a20.08547,20.08547 0 0 0 -2.37204,9.46896l0,0a20.08552,20.08552 0 0 0 20.08552,20.08547l107.66533,0l0,46.76984a17.75515,17.75515 0 0 0 17.7552,17.75515l0,0a17.75515,17.75515 0 0 0 17.75515,-17.75515l0,-46.76978l25.11712,0a15.15685,15.15685 0 0 0 15.15685,-15.15686l0,0a15.15685,15.15685 0 0 0 -15.15675,-15.1569z" fill="#007cc3" id="svg_41"/>
     <path stroke="#3f3d56" d="m1374.64531,1187.0292l-25.11712,0l0,-73.96352a14.81248,14.81248 0 0 0 -14.81248,-14.81248l-5.88544,0a14.81248,14.81248 0 0 0 -14.81248,14.81248l0,73.96352l-70.84684,0a8.45615,8.45615 0 0 1 -7.47674,-12.40647l74.98353,-141.92a14.81248,14.81248 0 0 0 -6.77184,-20.31391l-4.42643,-2.09024a14.81248,14.81248 0 0 0 -19.38822,6.41106l-91.45227,171.07882a20.08552,20.08552 0 0 0 -2.37204,9.46896l0,0a20.08552,20.08552 0 0 0 20.08552,20.08552l107.66533,0l0,46.76979a17.75515,17.75515 0 0 0 17.75515,17.7552l0,0a17.75515,17.75515 0 0 0 17.75515,-17.7552l0,-46.76979l25.11717,0a15.15685,15.15685 0 0 0 15.15685,-15.15685l0,0a15.15685,15.15685 0 0 0 -15.1568,-15.1569l0,0.00001z" fill="none" stroke-miterlimit="10" id="svg_78"/>
    </g>
   </g>
  </g>
 </g>
</svg>